<svg width="1200" height="900" viewBox="0 0 1200 900" fill="none" xmlns="http://www.w3.org/2000/svg">
  <rect width="1200" height="900" rx="48" fill="#0B2538"/>
  <rect x="54" y="54" width="1092" height="792" rx="38" fill="url(#bg)"/>
  <circle cx="932" cy="188" r="166" fill="#F5E6B5"/>
  <circle cx="932" cy="188" r="268" fill="#0AA9D1" fill-opacity="0.12"/>
  <circle cx="246" cy="736" r="248" fill="#18B57C" fill-opacity="0.14"/>
  <path d="M40 664C186 572 300 536 450 544C642 556 790 640 1160 610V846H40V664Z" fill="#0A1F2F" fill-opacity="0.34"/>
  <path d="M200 470C248 412 298 390 350 404C408 420 446 470 464 536" stroke="white" stroke-width="18" stroke-linecap="round"/>
  <path d="M416 394C462 424 508 486 528 556" stroke="#9BE6F4" stroke-width="18" stroke-linecap="round"/>
  <path d="M292 562C340 544 384 550 426 582" stroke="#22C48B" stroke-width="18" stroke-linecap="round"/>
  <defs>
    <linearGradient id="bg" x1="74" y1="84" x2="1092" y2="816" gradientUnits="userSpaceOnUse">
      <stop stop-color="#15516A"/>
      <stop offset="1" stop-color="#11627C"/>
    </linearGradient>
  </defs>
</svg>
