<svg width="1200" height="900" viewBox="0 0 1200 900" fill="none" xmlns="http://www.w3.org/2000/svg">
  <rect width="1200" height="900" rx="48" fill="#F3FBF8"/>
  <rect x="54" y="54" width="1092" height="792" rx="38" fill="url(#bg)"/>
  <circle cx="274" cy="180" r="176" fill="#18B57C" fill-opacity="0.14"/>
  <circle cx="954" cy="154" r="146" fill="#0AA9D1" fill-opacity="0.18"/>
  <path d="M54 648C206 560 344 522 534 542C710 560 872 654 1146 622V846H54V648Z" fill="#0B2234" fill-opacity="0.12"/>
  <path d="M284 544C334 458 412 402 504 396C594 392 680 438 742 520" stroke="#10263B" stroke-width="20" stroke-linecap="round"/>
  <path d="M400 628C452 576 514 550 586 554C650 558 712 588 766 638" stroke="#0AA9D1" stroke-width="20" stroke-linecap="round"/>
  <path d="M508 308C548 336 586 378 624 438" stroke="#18B57C" stroke-width="20" stroke-linecap="round"/>
  <defs>
    <linearGradient id="bg" x1="90" y1="92" x2="1078" y2="814" gradientUnits="userSpaceOnUse">
      <stop stop-color="#EAF6FB"/>
      <stop offset="1" stop-color="#F7FCFD"/>
    </linearGradient>
  </defs>
</svg>
